<svg xmlns="http://www.w3.org/2000/svg" width="100" height="100" viewBox="0 0 24 24" fill="none" stroke="#fff" stroke-width="1" stroke-linecap="round" stroke-linejoin="round" class="feather feather-command" style=""><path d="M18 3a3 3 0 0 0-3 3v12a3 3 0 0 0 3 3 3 3 0 0 0 3-3 3 3 0 0 0-3-3H6a3 3 0 0 0-3 3 3 3 0 0 0 3 3 3 3 0 0 0 3-3V6a3 3 0 0 0-3-3 3 3 0 0 0-3 3 3 3 0 0 0 3 3h12a3 3 0 0 0 3-3 3 3 0 0 0-3-3z" class="jWkVwPOV_0"></path><style data-made-with="vivus-instant">.jWkVwPOV_0{stroke-dasharray:105 107;stroke-dashoffset:106;animation:jWkVwPOV_draw_0 5700ms linear 0ms infinite,jWkVwPOV_fade 5700ms linear 0ms infinite;}@keyframes jWkVwPOV_draw{100%{stroke-dashoffset:0;}}@keyframes jWkVwPOV_fade{0%{stroke-opacity:1;}92.98245614035088%{stroke-opacity:1;}100%{stroke-opacity:0;}}@keyframes jWkVwPOV_draw_0{14.035087719298245%{stroke-dashoffset: 106}31.57894736842105%{ stroke-dashoffset: 0;}100%{ stroke-dashoffset: 0;}}</style></svg>